<svg xmlns="http://www.w3.org/2000/svg" width="360" height="178" viewBox="0 0 360 178">
  <g id="top-helo-logo" transform="translate(-601 -388)">
    <g id="グループ_3775" data-name="グループ 3775" transform="translate(601 528.914)">
      <rect id="長方形_7204" data-name="長方形 7204" width="360" height="37" transform="translate(0 0.086)" fill="#009ee6"/>
      <path id="パス_2216" data-name="パス 2216" d="M-161.553-10.494h-2.588v3.889h-.664v-5h-3.78v9.579h1.409V-3.191h.962v.813h1.409V-5.156h2.927c-.257.84-.921,2.615-4.214,3.78a3.132,3.132,0,0,1,1.111,1.3A7.8,7.8,0,0,0-160.916-3.5a8.682,8.682,0,0,0,3.672,3.442,3.75,3.75,0,0,1,1.179-1.219,7.979,7.979,0,0,1-4.051-3.875h3.753v-1.45h-.948v-3.889h-2.642v-1.734c.135-.081.312-.2.312-.271s-.068-.176-.312-.176l-1.6-.041Zm1.6,1.463h1.111v2.425h-1.138c0-.095.027-.379.027-.813Zm-1.6,1.667a7.311,7.311,0,0,1-.041.759h-1.016V-9.031h1.057Zm-5.623-.813v-1.951h.962v1.951Zm.962,1.477v2.032h-.962V-6.7Zm20.541-4.011h5.542v-1.477h-12.411v1.477h5.379V-9.56h-2.547v6.477h6.653V-9.56h-2.615ZM-148.261-7V-8.245h1.1V-7Zm1.1,1.274V-4.37h-1.1V-5.725ZM-145.673-7V-8.245h1.179V-7Zm1.179,1.274V-4.37h-1.179V-5.725Zm-6,3.55V-9.221c.244-.081.352-.108.352-.244s-.136-.163-.352-.176l-1.612-.081v9.43h1.612V-.766h8.225v.474h1.639v-9c.217-.108.312-.163.312-.285s-.095-.135-.312-.149l-1.639-.095v7.642Zm19.349-10.6a13.81,13.81,0,0,1-.772,1.843,8.169,8.169,0,0,1-.827.027c-1.057,0-1.87-.081-2.181-.108v1.694c1.1.014,1.5,0,2.168-.027a26.569,26.569,0,0,1-2.981,3.984l1.612.948c1.287-2.114,2.29-2.913,3.347-2.913a1.071,1.071,0,0,1,1.111.732c-.827.434-3.618,1.9-3.618,3.78,0,2.317,3.55,2.317,4.309,2.317a18.54,18.54,0,0,0,3.767-.366A7.587,7.587,0,0,1-125-2.717a15.428,15.428,0,0,1-4.255.61c-1.6,0-2.29-.217-2.29-.827,0-.583.556-1.179,2.032-1.978a14.126,14.126,0,0,1-.068,1.87c.623-.041,1.721,0,1.816,0,.014-.339.041-.745.041-1.341,0-.352-.014-.827-.054-1.355.976-.406,2.005-.745,3.2-1.111l-.677-1.843c-.569.3-1.91.908-2.872,1.341A2.25,2.25,0,0,0-130.172-8.6a2.757,2.757,0,0,0-1.287.312c.23-.406.542-.908.7-1.206,1.314-.122,2.669-.352,3.956-.583l-.014-1.734a13.541,13.541,0,0,1-3.062.677c.163-.325.257-.515.406-.84.176-.014.325-.095.325-.217,0-.163-.176-.19-.271-.217Zm18.658-.041V-.034h1.382V-11.443h3.4v-1.368Zm15.961,7.994a5.131,5.131,0,0,1-1.179,2.872v-.379h-1.518v-.718h1.165v-.989h-1.165v-.677h1.165V-5.7h-1.165v-.65h1.5V-7.5h-1.233a4.769,4.769,0,0,0,.312-.556c.149.014.393.027.393-.149a.24.24,0,0,0-.149-.19l-.352-.163h1.138V-9.776h-2.52a8.812,8.812,0,0,0,.285-.854h2.141v-1.206h-3.726c.041-.081.081-.149.108-.217.217-.014.339-.081.339-.176a.232.232,0,0,0-.163-.19l-1.274-.406a8.176,8.176,0,0,1-1.612,2.48,6.022,6.022,0,0,1,1.247.569h-1.138v1.219h1.558a5.837,5.837,0,0,1-1.9,1.775,7.371,7.371,0,0,1,1.179,1V-.265h1.436v-.867h3.062c-.108.068-.19.122-.285.19a4.4,4.4,0,0,1,1.26.962A7.232,7.232,0,0,0-95.134-3.9c.244.014.339-.054.339-.149,0-.135-.122-.19-.19-.217l-1.45-.556h1.667v3.536c0,.664.312.921.976.921h1.558c.434,0,.867-.108,1-1.775a3.861,3.861,0,0,1-1.179-.732c-.081,1.043-.081,1.165-.569,1.165-.271,0-.312-.068-.312-.312v-2.8h1.585v-7.452h-5.555v7.452Zm-5.122.786v-.677h1.057v.677Zm0-1.667v-.65h1.057v.65Zm0,3.374v-.718h1.057v.718Zm1.8-6.233a7.851,7.851,0,0,1-.6,1.057h-.908a8.119,8.119,0,0,0,.677-1.057Zm6.653-.569v.894h-2.6v-.894Zm-2.6-1.057v-.908h2.6v.908Zm2.6,3.089v.935h-2.6v-.935Zm-9.485-2.683a5.286,5.286,0,0,0,.6-.854h.772c-.135.339-.176.434-.366.854Zm23.752-2.6a22.519,22.519,0,0,1-6.829.827l.3,1.816a38.077,38.077,0,0,0,4.105-.515,46.646,46.646,0,0,1-5.908,5.664l1.382,1.355c1.91-1.978,3.279-3.4,5.65-3.4A2.154,2.154,0,0,1-77.79-4.479,1.952,1.952,0,0,1-79-2.6a2.823,2.823,0,0,0-2.886-2.141A2.224,2.224,0,0,0-84.348-2.7c0,1.287,1.206,2.276,3.293,2.276,2.209,0,5.081-1.247,5.081-4.2,0-2.331-1.829-3.509-3.834-3.509a5.5,5.5,0,0,0-1.775.3c.515-.556,2.764-2.669,3.591-3.293ZM-80.5-1.918a3.348,3.348,0,0,1-.813.108c-.664,0-1.409-.3-1.409-.84,0-.312.244-.61.745-.61A1.442,1.442,0,0,1-80.5-1.918ZM-66.449.033V-12.744h-1.382V-1.335h-3.4V.033ZM-50.8-12.595a25.657,25.657,0,0,1-.352,2.629c-.921.081-1.68.081-1.938.081-.569,0-.989-.027-1.328-.054l.149,1.9c1.274-.027,1.856-.027,2.683-.108a21.249,21.249,0,0,1-3.442,6.91,11.717,11.717,0,0,1,1.734.881,30.69,30.69,0,0,0,3.6-8.062A19.594,19.594,0,0,0-46.5-9.085l-.217-1.8a9.574,9.574,0,0,1-2.493.691c.054-.217.312-1.3.379-1.545.054-.014.244-.027.244-.2,0-.095-.081-.149-.244-.19Zm4.932,1.8c.406.42.84.962,1.233,1.463a3.789,3.789,0,0,1,.908-.637,10.346,10.346,0,0,0-1.3-1.463Zm-2.439,4.824A27.236,27.236,0,0,1-45.38-6.2a8.058,8.058,0,0,1,1.992.217,14.81,14.81,0,0,1,.122-1.789,10.122,10.122,0,0,0-2.005-.149,17.822,17.822,0,0,0-3.035.244Zm-.921,1.382a3.615,3.615,0,0,0-.6,1.816c0,2.019,2.764,2.127,4.038,2.127a17.249,17.249,0,0,0,2.832-.244,5.1,5.1,0,0,1-.081-.948,5.343,5.343,0,0,1,.068-.921,9.858,9.858,0,0,1-2.94.447c-.623,0-2.276,0-2.276-.718a1.6,1.6,0,0,1,.461-1Zm4.742-7.127a9.7,9.7,0,0,1,1.274,1.45c.352-.3.406-.325.827-.637a8.746,8.746,0,0,0-1.274-1.423Zm13.631-.718c.149,1.016.257,2.3.325,3.347A12.047,12.047,0,0,1-32.074-9a13.259,13.259,0,0,1-1.68-.095l.163,1.856a26.415,26.415,0,0,0,3.1-.135c0,2.385-.081,4.3-2.371,5.894a5.045,5.045,0,0,1,1.49,1.26c2.656-2.046,2.642-4.9,2.629-7.425A12.686,12.686,0,0,0-26.614-8.2a13.965,13.965,0,0,1-.041-1.775,10.818,10.818,0,0,1-2.1.623s-.014-1.694-.014-2.547c.081-.014.217-.054.217-.19s-.095-.135-.366-.163Zm-6.477.19a21.814,21.814,0,0,0-.691,5.42,15.151,15.151,0,0,0,1.138,6.07l1.477-.257a11.494,11.494,0,0,1,1.45-4.024,7.691,7.691,0,0,1-1.26-.827A12.271,12.271,0,0,0-35.977-4a10.014,10.014,0,0,1-.285-2.52,15.037,15.037,0,0,1,.718-4.851c.068-.014.3-.054.3-.23,0-.095-.054-.108-.2-.149Zm23.874,4.8a12.087,12.087,0,0,1,1.152,1.5,10.183,10.183,0,0,1,.908-.786c-.312-.461-.989-1.247-1.179-1.463Zm1.341-1.07a10.8,10.8,0,0,1,1.192,1.531,6.784,6.784,0,0,1,.881-.772,9.474,9.474,0,0,0-1.233-1.436Zm1.45-3.794a53.13,53.13,0,0,1-10.569,1.287,8.019,8.019,0,0,1-.881-.041l.257,2.181a58.61,58.61,0,0,1,6.179-.854c-1.816,1.4-2.845,2.954-2.845,4.769,0,3.076,2.886,4.255,4.946,4.715A9.974,9.974,0,0,1-12.726-2.3c-2.872-.217-3.984-1.247-3.984-2.832,0-2.48,3.008-5.257,6.4-5.244ZM.864-12.757A12.53,12.53,0,0,1-1.71-8.5a5.315,5.315,0,0,1,1.382.61A9.27,9.27,0,0,0,.4-8.882a7.95,7.95,0,0,0,.962,1.45A8.415,8.415,0,0,1-.775-6.091a12.658,12.658,0,0,0-.677-2.3l-1.125.271c.041.108.176.556.2.691-.65.081-.921.095-1.084.108.447-.61,1.612-2.425,2.046-3.184.285-.014.488-.041.488-.217,0-.095-.149-.149-.285-.2l-1.328-.528A12.755,12.755,0,0,1-3.7-9.221a3.326,3.326,0,0,0-.406-.42,17.746,17.746,0,0,0,1.165-2.236c.163-.014.42-.041.42-.2,0-.095-.108-.149-.257-.2l-1.26-.488a16.086,16.086,0,0,1-1.016,2.236c-.163-.149-.3-.257-.488-.406l-.867,1.03A17.246,17.246,0,0,1-4.474-8.137c-.135.2-.19.285-.677.948-.5.027-.759.027-1.084.027l.135,1.3c.014.122.041.271.176.271s.217-.149.271-.257c.2-.014,1.219-.122,1.463-.149v.976c-.068-.135-.163-.149-.366-.176l-1.287-.163A12.087,12.087,0,0,1-6.466-2a6.063,6.063,0,0,1,1.382.42A17.174,17.174,0,0,0-4.515-4.79a.388.388,0,0,0,.325-.2V-.2h1.436V-6.186c.176-.027.488-.068.637-.095.027.163.054.285.122.718.19-.068.528-.176.813-.244A4.176,4.176,0,0,1-.369-4.56,10.5,10.5,0,0,0,2.4-6.4,12.488,12.488,0,0,0,5.39-4.519,5.456,5.456,0,0,1,6.42-5.874,10.116,10.116,0,0,1,3.384-7.432a12.344,12.344,0,0,0,1.978-3.509l-.5-.569H1.894c.054-.108.081-.176.176-.406.2.027.434,0,.434-.163,0-.122-.149-.163-.257-.2Zm2.588,2.615A7.823,7.823,0,0,1,2.436-8.367a9.6,9.6,0,0,1-1.152-1.775ZM-2.455-5.17a12.783,12.783,0,0,0,.406,2.832c.393-.163,1.1-.366,1.274-.42a10.8,10.8,0,0,1-.488-2.71Zm3.536.921A9.429,9.429,0,0,1,3.615-2.893,6.1,6.1,0,0,1,4.374-4.1,10.9,10.9,0,0,0,1.84-5.413ZM-.409-1.755A16.943,16.943,0,0,1,4.685-.075a6.6,6.6,0,0,1,.772-1.382A22.331,22.331,0,0,0,.2-3.164Zm15.487-8.888c-.257.135-.339.176-.461.23.068-1.057.095-1.328.135-1.639.149-.027.3-.041.3-.2s-.176-.176-.406-.19l-1.775-.122c.054,1.328.068,1.477.068,2.764a13.651,13.651,0,0,1-2.574.447l.325,1.938a18.808,18.808,0,0,0,2.2-.718v.583A19.444,19.444,0,0,1,10.037-3.8l1.328,1.3c.217-.257,1.179-1.639,1.409-1.938-.068,2.6-.068,2.913-.135,4.078l1.91-.149c-.014-1.165-.014-1.639-.014-5.908A5.912,5.912,0,0,1,18.086-8a2.132,2.132,0,0,1,2.222,2.3c0,2.385-2.493,2.981-4.336,3.1a5.076,5.076,0,0,1,.935,1.667c1.016-.149,5.176-.759,5.176-4.864a3.609,3.609,0,0,0-3.807-3.848,5.4,5.4,0,0,0-3.035.976,5.438,5.438,0,0,1,.7-1.03Zm14.837-.488a12.567,12.567,0,0,1,4.241,1.694,14.607,14.607,0,0,1,1.03-1.68,13.938,13.938,0,0,0-4.661-1.558Zm-.7.867a32.9,32.9,0,0,0-1.368,5.7l1.653.6c.5-.556,2.168-2.412,4.512-2.412A1.583,1.583,0,0,1,35.795-4.75c0,2.331-3.848,2.452-4.7,2.452a10.328,10.328,0,0,1-1.87-.163,5.242,5.242,0,0,1,.528,1.924c.257.014.6.027,1.016.027,4.309,0,6.924-1.612,6.924-4.255A3.2,3.2,0,0,0,34.264-8a6.72,6.72,0,0,0-4.187,1.545,12.628,12.628,0,0,1,.935-2.832c.095,0,.285-.014.285-.19,0-.122-.135-.176-.23-.2Zm21.246,2.6a2.675,2.675,0,0,0-.948,1.992A9.309,9.309,0,0,0,49.6-4.492,7.047,7.047,0,0,0,48.45-4.6c-1.992,0-2.6,1.179-2.6,2.046,0,1.287,1.138,2.141,3.035,2.141.677,0,2.425-.027,2.629-1.775A11.707,11.707,0,0,1,53.328-.9a13.046,13.046,0,0,1,1.057-1.382,14.684,14.684,0,0,0-2.927-1.734,8.345,8.345,0,0,1-.149-1.436,1.894,1.894,0,0,1,.556-1.368Zm-.61,4.756c-.027.488-.108,1.057-1.138,1.057-.352,0-1.192-.081-1.192-.691,0-.488.61-.691,1.043-.691A2.886,2.886,0,0,1,49.845-2.907ZM43.423-8.57c.691-.027,1.748-.041,2.222-.081a21.124,21.124,0,0,1-2.832,5.569,10.061,10.061,0,0,1,1.707.7A30.7,30.7,0,0,0,47.6-8.9a18.114,18.114,0,0,0,2.276-.488,12.453,12.453,0,0,1-.041-1.734,13.013,13.013,0,0,1-1.694.488c.041-.163.271-.948.325-1.125.081,0,.271-.014.271-.163,0-.095-.068-.149-.244-.2l-1.816-.569c-.108.569-.217,1.247-.515,2.358-.772.068-1.138.081-1.49.081a9.38,9.38,0,0,1-1.463-.108Zm6.8-.163a9.637,9.637,0,0,1,3.442,1.748c.339-.556.759-1.125,1.03-1.49a9.971,9.971,0,0,0-3.536-1.748Zm9.62-3.062a23.522,23.522,0,0,0-.637,4.9c0,4.078,1.883,5.84,2.778,5.84.732,0,1.843-1.016,2.845-3.482a5.349,5.349,0,0,1-1.219-1.206c-.325.759-.948,2.263-1.45,2.263S61-4.844,61-6.755a11.971,11.971,0,0,1,.718-4.078c.095-.014.285-.041.285-.2,0-.122-.068-.149-.285-.217Zm7.1,1.667a12.071,12.071,0,0,1,2.331,6.761,15.9,15.9,0,0,1,1.883-.84,13.407,13.407,0,0,0-2.71-6.87Zm12.4,6.179A14.246,14.246,0,0,1,74.925-1.62,4.639,4.639,0,0,1,76.064-.332a13.439,13.439,0,0,0,4.349-2.845V-.251h1.68V-3.232a12.852,12.852,0,0,0,4.349,2.8A4.569,4.569,0,0,1,87.5-1.66a14.283,14.283,0,0,1-4.309-2.29h4.268V-5.332H82.093v-.42c.122-.027.366-.068.366-.217,0-.027-.014-.054-.054-.095h1.409v-5.515H81.727a3.277,3.277,0,0,0,.23-.488c.285-.041.406-.108.406-.217s-.149-.163-.257-.176L80.44-12.73a7.089,7.089,0,0,1-.434,1.152H78.679v5.515h1.734v.732H75.1V-3.95Zm2.913-3.414H80.237v-.921h2.019Zm-2.019-2.927h2.019v.867H80.237ZM75.63-5.82c.054.108.122.244.244.244.19,0,.19-.2.19-.406.163-.095,2.154-1.165,2.371-1.274A7.006,7.006,0,0,1,78.3-8.828a17.153,17.153,0,0,1-3.306,1.585ZM75.2-10.9A9.165,9.165,0,0,1,77.31-9.167a9.2,9.2,0,0,1,1-1.192,9.863,9.863,0,0,0-2.06-1.734Zm10.6-1.219A16.159,16.159,0,0,1,83.841-9.98a8.371,8.371,0,0,1,1.138.989,15.529,15.529,0,0,0,1.816-1.9,1.743,1.743,0,0,0,.257.041c.149,0,.2-.081.2-.149,0-.122-.081-.176-.176-.244Zm-1.87,4.5a11.273,11.273,0,0,1,2.412,1.87,12.682,12.682,0,0,1,1.057-1.233A13.672,13.672,0,0,0,84.9-8.828Zm9.85-4.783c.014.271.027.366.027.921,0,.772-.149,4.539-.149,5.393,0,2.71.095,5.637,3.171,5.637,1.6,0,4.241-.786,6.45-4.336A9.035,9.035,0,0,1,101.9-6.308c-.556,1.192-2.6,3.943-4.9,3.943-1.26,0-1.477-.908-1.477-3.238a41.471,41.471,0,0,1,.393-6.084c.108-.027.3-.095.3-.23s-.095-.163-.312-.19Zm18.238.271c.271.664.664,1.639,1,2.371a19.447,19.447,0,0,1-4.742.65l.583,1.789a24.425,24.425,0,0,0,4.891-.881,16.308,16.308,0,0,0,1.247,2.032,6.876,6.876,0,0,0-1.8-.23c-2.534,0-4.024,1.423-4.024,2.927,0,1.694,1.8,3.049,5.135,3.049A12.5,12.5,0,0,0,117.837-.9a6.651,6.651,0,0,1-.379-1.829,7.781,7.781,0,0,1-3.238.664c-1.667,0-3.143-.312-3.143-1.45,0-1.423,2.141-1.423,2.493-1.423a7.318,7.318,0,0,1,3.807,1.057l1.179-1.043a15.179,15.179,0,0,1-3.13-3.862,18.871,18.871,0,0,0,3.55-1.775c-.271-.312-.664-.745-1.165-1.382a11.177,11.177,0,0,1-3.116,1.626A8.865,8.865,0,0,1,114-12.554ZM129-12.771a13.813,13.813,0,0,1-.772,1.843,8.169,8.169,0,0,1-.827.027c-1.057,0-1.87-.081-2.181-.108v1.694c1.1.014,1.5,0,2.168-.027a26.568,26.568,0,0,1-2.981,3.984l1.612.948c1.287-2.114,2.29-2.913,3.347-2.913a1.071,1.071,0,0,1,1.111.732c-.827.434-3.618,1.9-3.618,3.78C126.86-.5,130.41-.5,131.169-.5a18.54,18.54,0,0,0,3.767-.366,7.588,7.588,0,0,1,.217-1.856,15.428,15.428,0,0,1-4.255.61c-1.6,0-2.29-.217-2.29-.827,0-.583.556-1.179,2.032-1.978a14.129,14.129,0,0,1-.068,1.87c.623-.041,1.721,0,1.816,0,.014-.339.041-.745.041-1.341,0-.352-.014-.827-.054-1.355.976-.406,2.005-.745,3.2-1.111L134.9-8.692c-.569.3-1.91.908-2.872,1.341A2.25,2.25,0,0,0,129.977-8.6a2.757,2.757,0,0,0-1.287.312c.23-.406.542-.908.7-1.206,1.314-.122,2.669-.352,3.956-.583l-.014-1.734a13.541,13.541,0,0,1-3.062.677c.163-.325.257-.515.406-.84.176-.014.325-.095.325-.217,0-.163-.176-.19-.271-.217Z" transform="translate(196.059 25.629)" fill="#fff"/>
    </g>
    <g id="グループ_3762" data-name="グループ 3762" transform="translate(608.845 388)">
      <path id="パス_2166" data-name="パス 2166" d="M45.789,73.19c-6.886,0-10.984,2.962-13.421,5.659-3.4,3.74-4.8,7.407-4.8,16.9,0,9.583,1.4,13.246,4.8,16.986,2.436,2.705,6.535,5.672,13.421,5.672a17.182,17.182,0,0,0,13.417-5.672c3.39-3.74,4.787-7.4,4.787-16.986,0-9.493-1.4-13.16-4.787-16.9A17.206,17.206,0,0,0,45.789,73.19m7.138,33.1a8.969,8.969,0,0,1-7.138,3.239,9.01,9.01,0,0,1-7.155-3.239c-1.65-2.347-2.168-4.091-2.168-10.536,0-6.364.517-8.1,2.168-10.451a9,9,0,0,1,7.155-3.231A8.964,8.964,0,0,1,52.928,85.3c1.654,2.347,2.184,4.087,2.184,10.54,0,6.356-.53,8.1-2.184,10.447" transform="translate(84.119 -55.285)"/>
      <rect id="長方形_7196" data-name="長方形 7196" width="8.886" height="62.016" transform="translate(157.259 0.558)"/>
      <path id="パス_2167" data-name="パス 2167" d="M61.188,73.19a17.236,17.236,0,0,0-13.421,5.659c-3.4,3.74-4.779,7.407-4.779,16.9,0,9.583,1.381,13.246,4.779,16.986a17.212,17.212,0,0,0,13.421,5.672c6.89,0,10.976-2.966,13.417-5.672,3.4-3.74,4.8-7.4,4.8-16.986,0-9.493-1.4-13.16-4.8-16.9-2.44-2.7-6.527-5.659-13.417-5.659m7.15,33.1a9.508,9.508,0,0,1-14.3,0c-1.642-2.347-2.18-4.091-2.18-10.536,0-6.364.538-8.1,2.18-10.451a9.523,9.523,0,0,1,14.3,0c1.654,2.347,2.172,4.087,2.172,10.54,0,6.356-.517,8.1-2.172,10.447" transform="translate(131.51 -55.285)"/>
      <path id="パス_2168" data-name="パス 2168" d="M80.39,76.787a18.19,18.19,0,0,0-10.337-3.532l-.045.041c-.346-.024-.672-.106-1.039-.106a14.776,14.776,0,0,0-11.681,5.4c-2.526,3.321-3.3,4.967-3.3,17.255,0,12.195.778,13.849,3.3,17.157a14.745,14.745,0,0,0,11.681,5.411c.367,0,.713-.1,1.068-.13l.016.012a18.173,18.173,0,0,0,10.337-3.545v3.044c0,6.189-4.184,9.587-10.117,9.587a12.577,12.577,0,0,1-8.621-4.013l-5.757,6.674A20.871,20.871,0,0,0,70.1,136.26c10.108,0,19.166-6.1,19.166-19.427V73.711H80.39ZM64.614,106.114c-1.565-2-1.744-3.219-1.744-10.271,0-7.15.179-8.361,1.744-10.369a8.239,8.239,0,0,1,13.262,0c1.573,2.009,1.748,3.219,1.748,10.369,0,7.053-.175,8.275-1.748,10.271a8.239,8.239,0,0,1-13.262,0" transform="translate(165.316 -55.288)"/>
      <path id="パス_2169" data-name="パス 2169" d="M111.892,99.1h.534a52.937,52.937,0,0,0-.807-10.1A17.741,17.741,0,0,0,93.675,73.19c-8.536,0-18.2,5.578-18.2,22.735,0,18.119,10.536,22.482,19.6,22.482a20.409,20.409,0,0,0,14.99-6.1l-5.5-6.539a13.879,13.879,0,0,1-9.664,4.274c-6.1,0-10.549-3.659-10.549-10.895h27.539ZM84.353,91.834c.171-6.715,4.095-10.288,9.322-10.288s9.55,3.573,9.8,10.288Z" transform="translate(231.387 -55.285)"/>
      <path id="パス_2170" data-name="パス 2170" d="M49.3,79.657c-.094-.135-.2-.249-.289-.379a15.107,15.107,0,0,0-1.479-1.65,13.236,13.236,0,0,0-1.226-1.01c-.3-.228-.57-.465-.9-.668a15,15,0,0,0-5.9-2.3,24.515,24.515,0,0,0-5.117-.546,24.964,24.964,0,0,0-5.908.709,15.106,15.106,0,0,0-4.576,1.8l-.126.069a13.817,13.817,0,0,0-6.552,9.269c-.045.183-.081.367-.114.554a16.552,16.552,0,0,0-.273,2.652h.008c-.008.212-.069.4-.069.615v29.36h8.886V91.823a12.756,12.756,0,0,1,.171-2.131,8.35,8.35,0,0,1,8.593-7.362,8.34,8.34,0,0,1,8.585,7.362,13.684,13.684,0,0,1,.171,2.131v26.316h8.894V88.779c0-.191-.057-.359-.065-.55l.081.012a14.786,14.786,0,0,0-2.8-8.585" transform="translate(50.922 -55.546)"/>
      <path id="パス_2171" data-name="パス 2171" d="M91.4,99.418c0,5.993-3.732,9.469-8.76,9.489-5.036-.02-8.756-3.5-8.756-9.489V73.1H65.011v29.36c0,.2.049.367.049.558l-.077-.02a14.819,14.819,0,0,0,2.791,8.6c.1.126.2.24.289.359a14.007,14.007,0,0,0,1.471,1.658,15.08,15.08,0,0,0,1.279,1.047,8.975,8.975,0,0,0,.835.631,15.012,15.012,0,0,0,5.936,2.306,25.074,25.074,0,0,0,10.793-.1A15.134,15.134,0,0,0,91,116.7a16.34,16.34,0,0,0,2.139-1.059c.057-.029.114-.069.175-.1a13.815,13.815,0,0,0,6.539-9.277c.037-.163.077-.338.106-.505a15.635,15.635,0,0,0,.277-2.677h-.008c.008-.212.065-.4.065-.623V73.1H91.4Z" transform="translate(199.127 -55.555)"/>
      <rect id="長方形_7197" data-name="長方形 7197" width="8.886" height="8.894" transform="translate(48.837 11.689)"/>
      <path id="パス_2172" data-name="パス 2172" d="M37.24,86.849H26.488L9.323,107.808H9.148V68.8H.16v62.692H9.148V118.633l7.045-8.01,11.889,20.865h11.27l-17.524-27.2Z" transform="translate(-0.16 -68.795)"/>
      <path id="パス_2173" data-name="パス 2173" d="M20.715,89.974H23v17.565h-2.29Zm7.529,6h2.714l-4.934,5.655,5.936,5.908H28.892l-5.786-5.9Z" transform="translate(63.035 -3.685)"/>
      <path id="パス_2174" data-name="パス 2174" d="M25.8,90.252a1.345,1.345,0,0,1,.97.4,1.265,1.265,0,0,1,.4.953,1.3,1.3,0,0,1-.4.953,1.349,1.349,0,0,1-.97.4,1.286,1.286,0,0,1-.929-.4,1.309,1.309,0,0,1-.407-.949A1.4,1.4,0,0,1,25.8,90.252m-1.129,4.869h2.29v11.563h-2.29Z" transform="translate(74.551 -2.83)"/>
      <path id="パス_2175" data-name="パス 2175" d="M28.653,91.619v1.467a4.6,4.6,0,0,1,3.484-1.695,3.872,3.872,0,0,1,2.009.558,3.69,3.69,0,0,1,1.414,1.532,7.276,7.276,0,0,1,.481,3.088v6.613H33.754V96.594a4.549,4.549,0,0,0-.538-2.53,2.083,2.083,0,0,0-1.809-.766,3.3,3.3,0,0,0-2.754,1.626v8.259H26.314V91.619Z" transform="translate(80.248 0.672)"/>
      <path id="パス_2176" data-name="パス 2176" d="M35.9,91.44a6.045,6.045,0,0,1,4.392,1.7,5.74,5.74,0,0,1,1.74,4.282,5.435,5.435,0,0,1-1.764,4.152,6.3,6.3,0,0,1-4.466,1.658,6.07,6.07,0,0,1-4.351-1.679,5.932,5.932,0,0,1,.02-8.43A6.18,6.18,0,0,1,35.9,91.44M35.774,93.5a3.6,3.6,0,0,0-2.705,1.088,3.726,3.726,0,0,0-1.051,2.738,3.6,3.6,0,0,0,1.084,2.722,3.818,3.818,0,0,0,2.771,1.039,3.757,3.757,0,0,0,2.758-1.059,3.65,3.65,0,0,0,1.076-2.718,3.612,3.612,0,0,0-1.116-2.722A3.886,3.886,0,0,0,35.774,93.5" transform="translate(90.655 0.822)"/>
      <path id="パス_2177" data-name="パス 2177" d="M38.524,101.551V97.318h-4.2V95.545h4.2v-4.2h1.8v4.2h4.2v1.772h-4.2v4.233Z" transform="translate(104.86 0.529)"/>
      <path id="パス_2178" data-name="パス 2178" d="M46.5,89.975h2.306v17.56H43.913a5.364,5.364,0,0,1-4.087-1.622,6.091,6.091,0,0,1-1.532-4.343,5.778,5.778,0,0,1,1.609-4.2,5.458,5.458,0,0,1,4.091-1.642,7.283,7.283,0,0,1,2.506.489Zm0,15.6V98.25A4.641,4.641,0,0,0,44.34,97.7a3.47,3.47,0,0,0-2.709,1.116,4.3,4.3,0,0,0-1.019,3.015,3.929,3.929,0,0,0,.88,2.758,2.684,2.684,0,0,0,1.12.782,7.87,7.87,0,0,0,2.127.2Z" transform="translate(117.079 -3.682)"/>
      <path id="パス_2179" data-name="パス 2179" d="M43.3,90.252a1.358,1.358,0,0,1,.97.4,1.28,1.28,0,0,1,.4.953,1.313,1.313,0,0,1-.4.953,1.362,1.362,0,0,1-.97.4,1.3,1.3,0,0,1-.929-.4,1.329,1.329,0,0,1-.4-.949A1.38,1.38,0,0,1,43.3,90.252m-1.129,4.869H44.46v11.563H42.175Z" transform="translate(128.408 -2.83)"/>
      <path id="パス_2180" data-name="パス 2180" d="M52,96.224v4.918c0,.4.134.587.4.587a2.752,2.752,0,0,0,1.3-.607v1.389a6.778,6.778,0,0,1-1.247.68,2.493,2.493,0,0,1-.99.192c-.982,0-1.565-.387-1.736-1.157a5.012,5.012,0,0,1-3.109,1.129,2.743,2.743,0,0,1-2.811-2.807,2.8,2.8,0,0,1,.786-1.952,5.321,5.321,0,0,1,2.229-1.365l2.929-1.006v-.611a1.845,1.845,0,0,0-2.086-2.09,5.061,5.061,0,0,0-3.647,1.935v-2.5a4.754,4.754,0,0,1,3.834-1.564,4.446,4.446,0,0,1,3,.978,2.834,2.834,0,0,1,.68.835,3.128,3.128,0,0,1,.383,1.043A15.044,15.044,0,0,1,52,96.224m-2.249,4.669V97.459l-1.536.595a5.088,5.088,0,0,0-1.65.933,1.566,1.566,0,0,0-.481,1.177,1.529,1.529,0,0,0,.46,1.165,1.6,1.6,0,0,0,1.182.456,2.887,2.887,0,0,0,2.025-.892" transform="translate(134.016 0.675)"/>
      <rect id="長方形_7198" data-name="長方形 7198" width="2.29" height="17.565" transform="translate(191.839 86.291)"/>
      <path id="パス_2181" data-name="パス 2181" d="M55.025,91.44a6.029,6.029,0,0,1,4.388,1.7,5.713,5.713,0,0,1,1.744,4.282,5.421,5.421,0,0,1-1.764,4.152,6.294,6.294,0,0,1-4.461,1.658,6.073,6.073,0,0,1-4.356-1.679,5.946,5.946,0,0,1,.016-8.43,6.19,6.19,0,0,1,4.433-1.687M54.9,93.5a3.591,3.591,0,0,0-2.7,1.088,3.745,3.745,0,0,0-1.055,2.738,3.643,3.643,0,0,0,1.08,2.722,3.844,3.844,0,0,0,2.771,1.039,3.734,3.734,0,0,0,2.762-1.059,3.653,3.653,0,0,0,1.08-2.718,3.6,3.6,0,0,0-1.12-2.722A3.866,3.866,0,0,0,54.9,93.5" transform="translate(149.477 0.822)"/>
      <path id="パス_2182" data-name="パス 2182" d="M53.619,95.44a3.553,3.553,0,0,1,1.349-2.925,5.808,5.808,0,0,1,3.691-1.068h4.763v1.777H61.087a4.6,4.6,0,0,1,.941,1.267,2.926,2.926,0,0,1,.261,1.283,3.555,3.555,0,0,1-.509,1.789,3.715,3.715,0,0,1-1.332,1.328,7.747,7.747,0,0,1-2.652.746c-.868.126-1.3.424-1.3.892a.747.747,0,0,0,.489.656,7.072,7.072,0,0,0,1.748.542,18.971,18.971,0,0,1,2.738.725,3.435,3.435,0,0,1,1.1.758,2.819,2.819,0,0,1,.831,2.082,2.99,2.99,0,0,1-1.467,2.624,6.886,6.886,0,0,1-3.92.986,7.043,7.043,0,0,1-3.948-.986,3.04,3.04,0,0,1-1.479-2.652q0-2.341,2.905-3.023c-.774-.5-1.157-.986-1.157-1.471a1.366,1.366,0,0,1,.493-1.006,3.121,3.121,0,0,1,1.34-.668,3.792,3.792,0,0,1-2.551-3.655m3.761,8.1a3.406,3.406,0,0,0-1.895.489,1.469,1.469,0,0,0-.737,1.259c0,1.2,1.076,1.785,3.223,1.785a5.087,5.087,0,0,0,2.355-.444,1.381,1.381,0,0,0,.839-1.259c0-.534-.354-.978-1.055-1.32a6.279,6.279,0,0,0-2.73-.509m.538-10.113a2.182,2.182,0,0,0-1.581.623,2.032,2.032,0,0,0-.656,1.508,1.921,1.921,0,0,0,.636,1.479,2.534,2.534,0,0,0,3.243-.008,2.05,2.05,0,0,0-.008-3,2.279,2.279,0,0,0-1.634-.6" transform="translate(161.024 0.844)"/>
      <path id="パス_2183" data-name="パス 2183" d="M63.531,103.01v-1.483a5.574,5.574,0,0,1-1.666,1.235,4.262,4.262,0,0,1-1.87.452,3.909,3.909,0,0,1-2.017-.554,3.54,3.54,0,0,1-1.4-1.479,7.52,7.52,0,0,1-.469-3.113V91.447H58.4v6.584a4.566,4.566,0,0,0,.521,2.547,2.1,2.1,0,0,0,1.829.717,3.364,3.364,0,0,0,2.783-1.589V91.447h2.286V103.01Z" transform="translate(171.858 0.844)"/>
      <path id="パス_2184" data-name="パス 2184" d="M69.939,97.6H61.807a3.774,3.774,0,0,0,1.116,2.636,3.641,3.641,0,0,0,2.64.982,6.862,6.862,0,0,0,4.176-1.406v2.237a7.6,7.6,0,0,1-2.094,1,8.657,8.657,0,0,1-2.432.306,5.4,5.4,0,0,1-3.088-.794,5.707,5.707,0,0,1-1.89-2.131,6.433,6.433,0,0,1-.709-3.1,6.125,6.125,0,0,1,1.5-4.29,4.955,4.955,0,0,1,3.879-1.65A4.553,4.553,0,0,1,68.566,93a6.434,6.434,0,0,1,1.373,4.315ZM61.86,96.224h5.822a3.228,3.228,0,0,0-.819-2.115,2.671,2.671,0,0,0-1.964-.737,2.826,2.826,0,0,0-2.017.737,3.654,3.654,0,0,0-1.023,2.115" transform="translate(182.351 0.675)"/>
      <rect id="長方形_7199" data-name="長方形 7199" width="8.886" height="34.343" transform="translate(48.837 28.137)"/>
    </g>
  </g>
</svg>
