<svg xmlns="http://www.w3.org/2000/svg" width="24" height="24" viewBox="0 0 24 24">
  <g id="ic-about" transform="translate(-1254 -30)">
    <path id="パス_2215" data-name="パス 2215" d="M0,0H24V24H0Z" transform="translate(1254 30)" fill="#fff"/>
    <path id="パス_2186" data-name="パス 2186" d="M13.23,2A7.372,7.372,0,0,0,7.777,4.117,7.44,7.44,0,0,0,5.5,9.5v.03L3.6,13.574A1,1,0,0,0,4.5,15h1v2a2,2,0,0,0,2,2h1v2a1,1,0,0,0,2,0V19a1,1,0,0,0,0-2h-3V14a1,1,0,0,0-1-1H6.076l1.34-2.844a.99.99,0,0,0,.095-.464c0-.01-.01-.181-.011-.191A5.455,5.455,0,0,1,9.17,5.553a5.527,5.527,0,0,1,4-1.55,5.685,5.685,0,0,1,5.33,5.77l-1.967,7.5a1.01,1.01,0,0,0,.006.534l1,3.466A1,1,0,0,0,18.5,22a1.018,1.018,0,0,0,.277-.04,1,1,0,0,0,.684-1.238l-.924-3.2,1.93-7.266A1.031,1.031,0,0,0,20.5,10V9.772A7.7,7.7,0,0,0,13.23,2Z" transform="translate(1254.5 30.002)"/>
  </g>
</svg>
