<svg xmlns="http://www.w3.org/2000/svg" width="24" height="24" viewBox="0 0 24 24">
  <g id="ic-fb" transform="translate(-1162 -823)">
    <rect id="長方形_7183" data-name="長方形 7183" width="24" height="24" transform="translate(1162 823)" fill="none"/>
    <g id="グループ_3754" data-name="グループ 3754" transform="translate(1169.891 827.465)">
      <path id="パス_2162" data-name="パス 2162" d="M30.267,0,28.226,0A3.585,3.585,0,0,0,24.45,3.874V5.66H22.4a.321.321,0,0,0-.321.321V8.569a.321.321,0,0,0,.321.321H24.45v6.53a.321.321,0,0,0,.321.321h2.678a.321.321,0,0,0,.321-.321V8.89h2.4a.321.321,0,0,0,.321-.321V5.981a.321.321,0,0,0-.321-.321h-2.4V4.146c0-.728.173-1.1,1.121-1.1h1.375a.321.321,0,0,0,.321-.321V.324A.321.321,0,0,0,30.267,0Z" transform="translate(-22.077)" fill="#fff"/>
    </g>
  </g>
</svg>
