<svg xmlns="http://www.w3.org/2000/svg" width="24" height="24" viewBox="0 0 24 24">
  <g id="ic-insta-bk" transform="translate(-1194 -823)">
    <rect id="長方形_7184" data-name="長方形 7184" width="24" height="24" transform="translate(1194 823)" fill="none"/>
    <g id="グループ_3758" data-name="グループ 3758" transform="translate(1197.512 826.64)">
      <path id="パス_2163" data-name="パス 2163" d="M17.68,4.948a6.15,6.15,0,0,0-.391-2.042A4.311,4.311,0,0,0,14.827.444,6.165,6.165,0,0,0,12.785.053C11.884.01,11.6,0,9.314,0S6.743.01,5.846.049A6.15,6.15,0,0,0,3.8.44a4.106,4.106,0,0,0-1.493.973A4.143,4.143,0,0,0,1.342,2.9,6.165,6.165,0,0,0,.951,4.944C.908,5.845.9,6.131.9,8.416s.01,2.571.049,3.468a6.149,6.149,0,0,0,.391,2.042A4.31,4.31,0,0,0,3.8,16.388a6.166,6.166,0,0,0,2.042.391c.9.04,1.183.049,3.468.049s2.571-.01,3.468-.049a6.148,6.148,0,0,0,2.041-.391,4.3,4.3,0,0,0,2.462-2.462,6.17,6.17,0,0,0,.391-2.042c.039-.9.049-1.183.049-3.468S17.72,5.845,17.68,4.948Zm-1.515,6.871a4.612,4.612,0,0,1-.289,1.561,2.791,2.791,0,0,1-1.6,1.6,4.63,4.63,0,0,1-1.561.289c-.888.04-1.154.049-3.4.049s-2.515-.01-3.4-.049a4.611,4.611,0,0,1-1.561-.289,2.59,2.59,0,0,1-.966-.628,2.617,2.617,0,0,1-.628-.966,4.629,4.629,0,0,1-.289-1.562c-.04-.888-.049-1.154-.049-3.4s.01-2.515.049-3.4a4.609,4.609,0,0,1,.289-1.561A2.558,2.558,0,0,1,3.393,2.5a2.612,2.612,0,0,1,.966-.628,4.631,4.631,0,0,1,1.562-.289c.888-.039,1.154-.049,3.4-.049s2.515.01,3.4.049a4.612,4.612,0,0,1,1.561.289,2.587,2.587,0,0,1,.966.628,2.616,2.616,0,0,1,.628.967,4.631,4.631,0,0,1,.289,1.561c.039.888.049,1.154.049,3.4S16.2,10.931,16.165,11.818Z" transform="translate(-0.898 0)" fill="#4b3827"/>
      <path id="パス_2164" data-name="パス 2164" d="M129.5,124.281a4.323,4.323,0,1,0,4.323,4.323A4.324,4.324,0,0,0,129.5,124.281Zm0,7.127a2.8,2.8,0,1,1,2.8-2.8A2.8,2.8,0,0,1,129.5,131.408Z" transform="translate(-121.086 -120.188)" fill="#4b3827"/>
      <path id="パス_2165" data-name="パス 2165" d="M364.28,89.455a1.009,1.009,0,1,1-1.009-1.009A1.009,1.009,0,0,1,364.28,89.455Z" transform="translate(-350.361 -85.533)" fill="#4b3827"/>
    </g>
  </g>
</svg>
