<svg xmlns="http://www.w3.org/2000/svg" xmlns:xlink="http://www.w3.org/1999/xlink" width="68" height="24" viewBox="0 0 68 24">
  <defs>
    <clipPath id="clip-path">
      <rect id="長方形_7227" data-name="長方形 7227" width="58.718" height="14.519" fill="none"/>
    </clipPath>
  </defs>
  <g id="ic-note" transform="translate(-1364 -5)">
    <path id="パス_2213" data-name="パス 2213" d="M0,0H68V24H0Z" transform="translate(1364 5)" fill="#fff"/>
    <g id="グループ_3783" data-name="グループ 3783" transform="translate(1369 9)">
      <g id="グループ_3782" data-name="グループ 3782" clip-path="url(#clip-path)">
        <path id="パス_2211" data-name="パス 2211" d="M165.235,16.879a4.527,4.527,0,1,1-4.68,4.525,4.507,4.507,0,0,1,4.68-4.525m20.4.041c2.885,0,4.2,2.242,4.2,4.691a4.77,4.77,0,0,1-.016.477c-.009.1-.056.158-.147.165h-5.887a2,2,0,0,0,2.117,1.7,2.833,2.833,0,0,0,2-.778.156.156,0,0,1,.213-.013l.015.013,1.142,1.027a.155.155,0,0,1,.021.239,4.569,4.569,0,0,1-7.939-3.03,4.3,4.3,0,0,1,4.275-4.494m-9.568-2.055a.153.153,0,0,1,.166.166v2.055H178.1a.153.153,0,0,1,.166.166V19a.153.153,0,0,1-.166.166h-1.868v3.767c0,.571.254.841.757.841a2.112,2.112,0,0,0,1.048-.218c.114-.057.2-.021.2.094v1.629a.229.229,0,0,1-.114.207,3.4,3.4,0,0,1-1.827.446c-1.344,0-2.3-.483-2.486-2.018a6.393,6.393,0,0,1-.026-.673V19.162h-.872a.153.153,0,0,1-.166-.166V17.253a.153.153,0,0,1,.166-.166h.872V15.032a.153.153,0,0,1,.166-.166Zm-21.6,2.013a2.7,2.7,0,0,1,2.849,2.345,5.347,5.347,0,0,1,.078,1v5.329a.153.153,0,0,1-.166.166h-2.117a.153.153,0,0,1-.166-.166V20.864c0-1.152-.55-1.764-1.484-1.764s-1.526.6-1.526,1.764v4.691a.153.153,0,0,1-.166.166h-2.117a.153.153,0,0,1-.166-.166v-8.3a.153.153,0,0,1,.166-.166h2.117a.153.153,0,0,1,.166.166v.986a3.056,3.056,0,0,1,2.532-1.359M165.235,19a2.276,2.276,0,0,0-2.262,2.408,2.267,2.267,0,1,0,4.525,0A2.276,2.276,0,0,0,165.235,19m20.4-.114c-.976,0-1.61.664-1.887,1.794l-.013.053h3.721c-.172-1.079-.763-1.847-1.821-1.847" transform="translate(-131.123 -13.039)" fill-rule="evenodd"/>
        <path id="パス_2212" data-name="パス 2212" d="M5.521,6.393H3.809a1.1,1.1,0,0,1-.374-.042.734.734,0,0,1,0-1.391,1.094,1.094,0,0,1,.374-.042h1.11V3.809a1.088,1.088,0,0,1,.042-.374.734.734,0,0,1,1.391,0,1.1,1.1,0,0,1,.041.374V5.521a1.426,1.426,0,0,1-.021.3.759.759,0,0,1-.55.55,1.418,1.418,0,0,1-.3.021m5.5,6.289H1.837V4.592a.361.361,0,0,1,.109-.265L4.328,1.946a.36.36,0,0,1,.265-.109h6.429ZM.446,3.233a1.448,1.448,0,0,0-.436.892c-.005.057-.01.14-.01.223V13.5a1.952,1.952,0,0,0,.01.228.925.925,0,0,0,.784.783,1.946,1.946,0,0,0,.228.01H11.836a1.943,1.943,0,0,0,.228-.01.925.925,0,0,0,.783-.783,1.905,1.905,0,0,0,.01-.228V1.022a1.909,1.909,0,0,0-.01-.228.925.925,0,0,0-.783-.783A1.934,1.934,0,0,0,11.836,0H4.348c-.083,0-.166.005-.223.011a1.446,1.446,0,0,0-.893.436Z" fill="#41c9b4" fill-rule="evenodd"/>
      </g>
    </g>
  </g>
</svg>
