<svg xmlns="http://www.w3.org/2000/svg" width="24" height="24" viewBox="0 0 24 24">
  <g id="ic-shop" transform="translate(-1173 -30)">
    <path id="パス_2214" data-name="パス 2214" d="M0,0H24V24H0Z" transform="translate(1173 30)" fill="#fff"/>
    <path id="XMLID_1732_" d="M22.7,15.03l-2.646,8.332a1.4,1.4,0,0,1-1.335.989H8.505a1.458,1.458,0,0,1-1.36-.915L3.239,12.978H.989A.989.989,0,1,1,.989,11H3.931a1.012,1.012,0,0,1,.94.668L8.9,22.373h9.4L20.4,15.7H8.753a.989.989,0,0,1,0-1.978H21.758a.983.983,0,0,1,.791.42.959.959,0,0,1,.148.89ZM9,25.662a1.6,1.6,0,1,0,1.137.47A1.631,1.631,0,0,0,9,25.662Zm8.876,0a1.6,1.6,0,1,0,1.137.47A1.631,1.631,0,0,0,17.876,25.662Z" transform="translate(1173.627 22)"/>
  </g>
</svg>
