<svg xmlns="http://www.w3.org/2000/svg" width="24" height="24" viewBox="0 0 24 24">
  <g id="ic-twitter" transform="translate(-1445 -31)">
    <path id="パス_2210" data-name="パス 2210" d="M0,0H24V24H0Z" transform="translate(1445 31)" fill="#fff"/>
    <path id="パス_64" data-name="パス 64" d="M18.182,5.428a6.868,6.868,0,0,1-1.909.518,3.343,3.343,0,0,0,1.464-1.837,6.644,6.644,0,0,1-2.112.809A3.317,3.317,0,0,0,9.961,7.944,9.418,9.418,0,0,1,3.125,4.473,3.369,3.369,0,0,0,2.68,6.148,3.309,3.309,0,0,0,4.152,8.907a3.283,3.283,0,0,1-1.5-.413v.04a3.317,3.317,0,0,0,2.67,3.236,3.162,3.162,0,0,1-.89.138,3.92,3.92,0,0,1-.623-.057,3.326,3.326,0,0,0,3.1,2.3,6.651,6.651,0,0,1-4.094,1.424A6.444,6.444,0,0,1,2,15.525a9.361,9.361,0,0,0,5.089,1.5,9.378,9.378,0,0,0,9.474-9.279c0-.057,0-.114,0-.171V7.143A6.826,6.826,0,0,0,18.182,5.428Z" transform="translate(1446.818 32.978)"/>
  </g>
</svg>
